<?xml version="1.0" encoding="UTF-8" standalone="no"?>
<!-- Created with Inkscape (http://www.inkscape.org/) -->

<svg
   width="210mm"
   height="297mm"
   viewBox="0 0 210 297"
   version="1.1"
   id="svg1"
   sodipodi:docname="AI_logotipo_ArcidiaconoInteractive_v01.svg"
   inkscape:version="1.4.4 (dcaf3e7, 2026-05-05)"
   xml:space="preserve"
   xmlns:inkscape="http://www.inkscape.org/namespaces/inkscape"
   xmlns:sodipodi="http://sodipodi.sourceforge.net/DTD/sodipodi-0.dtd"
   xmlns="http://www.w3.org/2000/svg"
   xmlns:svg="http://www.w3.org/2000/svg"><sodipodi:namedview
     id="namedview1"
     pagecolor="#ffffff"
     bordercolor="#000000"
     borderopacity="0.25"
     inkscape:showpageshadow="2"
     inkscape:pageopacity="0.0"
     inkscape:pagecheckerboard="0"
     inkscape:deskcolor="#d1d1d1"
     inkscape:document-units="mm"
     inkscape:zoom="0.68862935"
     inkscape:cx="396.43968"
     inkscape:cy="445.08704"
     inkscape:window-width="1920"
     inkscape:window-height="991"
     inkscape:window-x="-9"
     inkscape:window-y="-9"
     inkscape:window-maximized="1"
     inkscape:current-layer="layer1" /><defs
     id="defs1" /><g
     inkscape:label="Livello 1"
     inkscape:groupmode="layer"
     id="layer1"><text
       xml:space="preserve"
       style="font-style:normal;font-variant:normal;font-weight:600;font-stretch:normal;font-size:14.1111px;font-family:'Segoe UI';-inkscape-font-specification:'Segoe UI Semi-Bold';writing-mode:lr-tb;direction:ltr;fill:#00a3ff;stroke:none;stroke-width:0.467039;fill-opacity:1"
       x="27.238304"
       y="140.98438"
       id="use2"
       transform="scale(0.87725762,1.139916)"><tspan
         id="tspan3"
         style="font-style:normal;font-variant:normal;font-weight:600;font-stretch:normal;font-size:14.1111px;font-family:'Segoe UI';-inkscape-font-specification:'Segoe UI Semi-Bold';stroke-width:0.467039;fill:#00a3ff;fill-opacity:1;stroke:none"
         x="27.238304"
         y="140.98438"
         sodipodi:role="line"
         dx="0 -0.38421732 -0.38421732 0 0 0 0 0 0 -0.38421732 -0.38421732">ARCIDIACONO INTERACTIVE</tspan></text><g
       id="g3"
       style="stroke:#c30913;stroke-opacity:1"><path
         id="rect6"
         style="fill:none;fill-opacity:1;stroke:#c30913;stroke-width:0.171169;stroke-opacity:1"
         inkscape:transform-center-x="98.16126"
         inkscape:transform-center-y="-84.612648"
         d="m 87.776376,34.732648 c 3.067065,0.89193 6.127111,1.820685 9.223815,2.592379 1.751826,0.353772 3.505829,0.66469 5.231239,1.143793 0.98836,0.283472 1.98061,0.550443 2.97577,0.80431 l 0.75889,-0.896277 c -1.94805,-0.46882 -3.88559,-0.985139 -5.80506,-1.573929 -1.716326,-0.475249 -3.462171,-0.764917 -5.204923,-1.11283 -2.181586,-0.526726 -4.346528,-1.128453 -6.504743,-1.75449 z" /><path
         id="path26"
         style="fill:none;fill-opacity:1;stroke:#c30913;stroke-width:0.171169;stroke-opacity:1"
         inkscape:transform-center-x="98.16126"
         inkscape:transform-center-y="-84.612648"
         d="m 50.91855,107.08786 c -2.093727,-0.37655 -4.19397,-0.71802 -6.287512,-1.09679 -1.542402,-0.21764 -3.039981,-0.67682 -4.565691,-0.98114 -0.917116,-0.18292 -1.076771,-0.17731 -2.050323,-0.28502 -2.013721,-0.20739 -4.034619,-0.30813 -6.056417,-0.37193 l -12.407218,14.64549 10.758632,12.41611 z" /><path
         id="path25"
         style="fill:none;fill-opacity:1;stroke:#c30913;stroke-width:0.171169;stroke-opacity:1"
         inkscape:transform-center-x="98.16126"
         inkscape:transform-center-y="-84.612648"
         d="m 54.983681,101.15844 0.908737,-1.07291 c -0.143914,-0.0372 -0.28771,-0.0746 -0.431617,-0.111915 -0.318524,-0.06411 -0.635618,-0.136932 -0.955657,-0.192129 -1.467348,-0.253066 -2.947322,-0.428989 -4.415654,-0.676727 -0.41538,-0.0701 -2.944646,-0.539794 -3.392093,-0.622626 -1.580433,-0.204922 -3.092886,-0.766308 -4.653863,-1.066197 -0.79753,-0.153219 -1.212559,-0.164415 -2.041083,-0.235033 -0.920233,-0.07519 -1.84127,-0.138888 -2.76281,-0.193248 l -1.216254,1.435902 c 2.021799,0.06382 4.042696,0.164538 6.056417,0.371943 0.973552,0.107702 1.133207,0.102085 2.050323,0.28501 1.525711,0.304322 3.02329,0.7635 4.565691,0.98114 2.093542,0.37877 4.193785,0.72024 6.287513,1.09679 z" /><path
         id="path24"
         style="fill:none;fill-opacity:1;stroke:#c30913;stroke-width:0.171169;stroke-opacity:1"
         inkscape:transform-center-x="98.16126"
         inkscape:transform-center-y="-84.612648"
         d="m 178.18355,98.048351 c -0.48014,0.732422 -0.94247,1.474676 -1.60414,2.045849 -1.20173,0.85637 -2.50119,1.57093 -3.82157,2.20514 -1.30622,0.55832 -2.62256,1.09957 -3.97054,1.53737 -0.94504,0.24043 -1.84599,0.61593 -2.76351,0.94458 -1.80591,0.46731 -3.59119,1.01144 -5.37808,1.5523 -2.13093,0.61875 -4.26166,1.24035 -6.40305,1.81828 -2.75615,0.79253 -5.48696,1.67098 -8.25643,2.41294 -2.04668,0.42403 -4.05561,1.00974 -6.08308,1.51797 l 23.38307,0.36336 -0.0206,-6.48934 31.10371,37.93586 10.82191,-12.90443 z" /><path
         id="path23"
         style="fill:none;fill-opacity:1;stroke:#c30913;stroke-width:0.171169;stroke-opacity:1"
         inkscape:transform-center-x="98.16126"
         inkscape:transform-center-y="-84.612648"
         d="m 180.47211,84.12743 c -0.0396,0.0571 -0.0794,0.114278 -0.11981,0.170862 -0.61892,0.885763 -1.1367,1.869286 -1.9874,2.536411 -1.1459,0.894787 -2.44524,1.567001 -3.74726,2.174929 -1.30253,0.548306 -2.61001,1.093139 -3.95987,1.500066 -0.96005,0.220746 -1.86308,0.621406 -2.79623,0.930406 -1.76715,0.478489 -3.4951,1.103989 -5.25008,1.631756 -2.1519,0.555301 -4.28103,1.198523 -6.42226,1.796273 -2.73593,0.856496 -5.46966,1.706921 -8.24362,2.418162 -2.43575,0.471668 -4.80457,1.236142 -7.22326,1.785827 -1.76011,0.37631 -3.51369,0.792145 -5.28208,1.124018 l 8.5277,0.13244 c 2.02746,-0.508234 4.03639,-1.093942 6.08307,-1.517978 2.76947,-0.741958 5.50028,-1.6204 8.25643,-2.412936 2.1414,-0.577925 4.27212,-1.199526 6.40306,-1.818276 1.78688,-0.540863 3.57217,-1.084996 5.37807,-1.552296 0.91752,-0.328657 1.81847,-0.704166 2.76351,-0.944584 1.34798,-0.43781 2.66432,-0.979055 3.97054,-1.537374 1.32038,-0.634212 2.61984,-1.348774 3.82157,-2.205141 0.66167,-0.571175 1.124,-1.31343 1.60415,-2.045844 z" /><path
         id="path22"
         style="fill:none;fill-opacity:1;stroke:#c30913;stroke-width:0.171169;stroke-opacity:1"
         inkscape:transform-center-x="98.16126"
         inkscape:transform-center-y="-84.612648"
         d="m 152.89998,56.700565 c -0.0576,-0.01598 -0.11524,-0.03218 -0.1728,-0.04849 -1.69706,-0.446085 -3.35585,-1.04114 -5.04351,-1.524319 -3.31093,-0.917041 -6.62983,-1.801892 -10.00455,-2.425996 -3.07833,-0.683015 -6.17055,-1.313887 -9.2935,-1.725386 -0.64311,-0.118932 -1.2816,-0.265639 -1.91985,-0.413347 L 147.31321,75.989891 73.691209,74.84572 99.127449,44.820543 c -0.995162,-0.253867 -1.987406,-0.520838 -2.97577,-0.804309 -1.725406,-0.479104 -3.479412,-0.790022 -5.231237,-1.143793 -3.096705,-0.771695 -6.156747,-1.700449 -9.223813,-2.59238 L 36.71097,93.381834 c 0.92154,0.05436 1.842584,0.118061 2.76281,0.193241 0.828524,0.0706 1.243553,0.08181 2.041083,0.235032 1.560977,0.299897 3.07343,0.861283 4.653863,1.066198 0.447447,0.08284 2.976713,0.552536 3.392093,0.622633 1.468332,0.247731 2.948306,0.423661 4.415654,0.676726 0.320039,0.05523 0.637133,0.128017 0.955657,0.192122 0.143907,0.03732 0.287703,0.07477 0.431617,0.111918 l 14.047967,-16.582411 0.04768,14.971179 57.257756,0.889748 c 1.7684,-0.331884 3.52198,-0.747719 5.28208,-1.12403 2.4187,-0.549684 4.78752,-1.314159 7.22326,-1.785819 2.77397,-0.711241 5.5077,-1.561666 8.24363,-2.41817 2.14123,-0.597749 4.27035,-1.240972 6.42226,-1.796273 1.75497,-0.52776 3.48293,-1.153259 5.25008,-1.631756 0.93315,-0.308992 1.83618,-0.709653 2.79622,-0.930391 1.34987,-0.406934 2.65734,-0.951782 3.95987,-1.500087 1.30203,-0.607921 2.60136,-1.280128 3.74727,-2.174913 0.8507,-0.667134 1.36848,-1.650658 1.9874,-2.536417 0.0404,-0.05658 0.0803,-0.113736 0.11981,-0.170864 z" /><path
         id="path21"
         style="fill:none;fill-opacity:1;stroke:#c30913;stroke-width:0.171169;stroke-opacity:1"
         inkscape:transform-center-x="98.16126"
         inkscape:transform-center-y="-84.612648"
         d="m 157.78693,49.698228 c -0.36379,-0.09059 -0.72661,-0.185827 -1.08792,-0.286882 -1.65901,-0.455372 -3.29621,-0.994552 -4.95428,-1.454177 -3.29075,-0.88699 -6.59033,-1.736971 -9.93807,-2.356608 -3.14045,-0.683722 -6.28967,-1.336457 -9.45988,-1.848498 -0.33608,-0.066 -0.67124,-0.135381 -1.00651,-0.206302 l 1.20525,1.469851 c 0.63825,0.147709 1.27673,0.294416 1.91985,0.413348 3.12295,0.411499 6.21516,1.042371 9.29349,1.725386 3.37473,0.624103 6.69363,1.508955 10.00456,2.425996 1.68766,0.483179 3.34645,1.078233 5.04352,1.524319 0.0575,0.01635 0.11517,0.03249 0.17278,0.04849 z" /><path
         id="path20"
         style="fill:none;fill-opacity:1;stroke:#c30913;stroke-width:0.171169;stroke-opacity:1"
         inkscape:transform-center-x="98.16126"
         inkscape:transform-center-y="-84.612648"
         d="M 105.11474,5.2519062 85.279473,28.665753 c 2.158213,0.626037 4.323154,1.227764 6.504745,1.75449 1.74275,0.347913 3.488597,0.637581 5.204922,1.11283 1.919467,0.588789 3.85701,1.105109 5.80506,1.573929 l 10.74086,-12.678733 14.63317,17.84745 c 0.33526,0.07092 0.67043,0.140299 1.0065,0.206301 3.17021,0.512042 6.31942,1.164777 9.45988,1.848498 3.34774,0.619638 6.64733,1.469618 9.93807,2.356608 1.65808,0.459625 3.29528,0.998806 4.95428,1.454177 0.36131,0.101055 0.72413,0.196292 1.08792,0.286882 L 123.85567,6.9123899 115.34611,17.059556 Z" /></g></g></svg>
